<?xml version="1.0" encoding="utf-8"?>
<!-- Generator: Adobe Illustrator 23.0.1, SVG Export Plug-In . SVG Version: 6.00 Build 0)  -->
<svg version="1.1" id="Layer_1" xmlns="http://www.w3.org/2000/svg" xmlns:xlink="http://www.w3.org/1999/xlink" x="0px" y="0px"
	 viewBox="0 0 150 150" style="enable-background:new 0 0 150 150;" xml:space="preserve">
<style type="text/css">
	.st0{fill:#E5BBD7;}
	.st1{fill:#E9DEEE;}
	.st2{fill:#FFFFFF;}
	.st3{fill:#CB7FB6;}
	.st4{fill:#240A3F;}
</style>
<g>
	<path class="st0" d="M126.9,111l-0.1,0.9c-0.6,5.9-3.9,11.1-9,14.1c-3.8,2.2-8,3.6-12.3,4.1c-1.3,0.2-2.5,0.3-3.8,0.4
		c-1,0.1-2.1,0.2-3.2,0.2c-1.1,0-2.3,0-3.4-0.1c-2.2-0.1-4.3-0.6-6.3-1.5c-0.6-0.3-3,0.1-3.6-0.3c-2-1.1-3.3-3.1-3.6-5.3
		c-0.8-4.5-1.3-11.5,1.2-15.5c2.5-3.7,5.6-6.9,9.3-9.5c7.2-5.2,11.9-9.4,12.7-19c0.4-5.4-0.7-10.7-3.3-15.5
		c-3.5-7.8-7-17.9-14.9-21.6c-0.3-0.1-0.6-0.3-0.9-0.4l4-4l0.6,0.2c4.8,1.4,34.5,10.9,36.3,34.8c0.5,7.5-1.5,15-5.6,21.3
		c-1.7,2.6-3.5,5.1-5.6,7.4c-2.3,2.7-5.4,5.2-6.6,8.7c-0.2,0.6-0.3,1.3-0.3,2c0.4,1.4,1.3,2.5,2.7,3.1c0.7,0.4,1.5,0.7,2.3,0.9
		c1.9,0.5,4,0.5,5.9,0c0.8-0.2,1.6-0.5,2.4-0.9C123.6,114.7,126.8,112.8,126.9,111z"/>
	<path class="st1" d="M119.8,116.4c-1.5,4-4.3,7.3-8,9.6c-3.8,2.2-8,3.6-12.3,4.1c-1.3,0.2-2.5,0.3-3.8,0.4c-0.2,0-0.4,0-0.6,0
		c-2.2-0.1-4.3-0.6-6.3-1.5c-0.6-0.3-3,0.1-3.6-0.3c-2-1.1-3.3-3.1-3.6-5.3c-0.8-4.5-1.3-11.5,1.2-15.5c2.5-3.7,5.6-6.9,9.3-9.5
		c7.2-5.2,11.9-9.4,12.7-19c0.4-5.4-0.7-10.7-3.3-15.5c-3.5-7.8-7-17.9-14.9-21.6c-0.3-0.1-0.6-0.3-0.9-0.4l2.5-2.5
		c9.5,3.4,30.9,13.3,32.4,33.5c0.5,7.5-1.5,15-5.6,21.3c-1.7,2.6-3.5,5.1-5.6,7.4c-2.3,2.7-5.4,5.2-6.6,8.7c-0.2,0.6-0.3,1.3-0.3,2
		c0.4,1.4,1.3,2.5,2.7,3.1c2.6,1.3,5.5,1.7,8.3,0.9C115.8,116.9,117.9,116.9,119.8,116.4z"/>
	<path class="st1" d="M92.2,64.5c0,8.8-9.6,19.1-21.2,24.5c-1.5,0.7-2.9,1.4-4.2,2.3c4.7-6.6-1.3-15.6-1.7-16.2
		c0.6,0-0.5-2.7-0.1-3.2C82.3,47.8,88.7,69.6,92.2,64.5z"/>
	<path class="st1" d="M108.8,79.3c-0.9,9.6-7.6,14.5-14.7,19.7c-3.6,2.4-6.6,5.5-9,9c-2.2,4-2.8,8.7-1.7,13.2
		c0.3,2.7,1.6,5.1,3.8,6.7c0.6,0.4,1.2,0.7,1.9,1c-2.2,1.3-4.5,2.2-7,2.6c-2.3,0.6-4.6,0.9-7,1.1c-0.1,0-0.2,0-0.3,0
		c-1.6,0.2-3.1,0.2-4.7,0.1c-3.7,0-7.3-1.1-10.3-3.2c-7-5.4-8.4-15.7-5.5-23.3c2.4-6.3,6.9-11.6,12.6-15.1c1.4-0.9,2.8-1.6,4.2-2.3
		c11.7-5.4,14.9-14.8,14.9-23.6C85.8,54.7,75,46,75,46c2.5-0.7,10.3-2.6,11.7-3.6c8.3,4.2,14.9,11.1,18.8,19.5
		C108.1,67.3,109.2,73.3,108.8,79.3z"/>
	<path class="st1" d="M90.5,38.2c-0.8,1.7-2.2,3.2-3.8,4.2C85,43.6,83,44.5,80.9,45c3,6.4,4.7,13.3,4.9,20.4
		c-4.6,5.8-11.5,9.3-18.9,9.6c-0.7,0-1.3,0-2,0c-7.1,0.3-12.7,2.6-20,10c-8,8-14-4-16-8c-2-4-4-6,6-12c7.4-4.5,9.3-11.1,13.9-16.7
		c2.5,3.5-0.8-5.5,3.8,0.4c-0.4-0.1,0.9-2,0.8-2.3c-0.4-1.7,1.5-2.3,2.2-3.9c3.1-6.5,3.4-5.4,9.6-5c0.2,0,7.4-1,7.6-1
		c2.2-0.8,4.2-1.9,6.1-3.3c2.4-1.7,6.1-2.9,11.8-2.1C91.7,33.4,91.6,35.9,90.5,38.2z"/>
	<path class="st1" d="M48,42.2L23.4,18.8c-0.4-0.3-0.4-0.9-0.1-1.3c0.3-0.4,0.8-0.6,1.2-0.4l31.3,15.3L48,42.2z"/>
	<path class="st1" d="M79.1,33.1c-2,1.4-3.5,3.5-4.2,5.9c-0.2,0-0.5,0-0.7,0c-6.2-0.3-14.6,0.1-17.7,6.6c-0.7,1.6-0.9,3.4-0.5,5.1
		c0.1,0.3,0.5,2.2,0.9,2.3c-3.1-0.7-5.9-2.3-8.1-4.7c-1.3-1.8-1.6-4-0.9-6.1c0,0,0,0,0,0c1.1-2.7,2.8-5.2,4.9-7.2
		c0.9-0.9,1.8-1.7,2.8-2.5l0,0C62.6,26.8,72.6,27,79.1,33.1z"/>
	<path class="st2" d="M74.2,52.6c-1-2.2-4.6-2.8-8-1.3c-3.5,1.5-5.5,4.5-4.5,6.8c1,2.2,4.6,2.8,8,1.3C73.2,57.9,75.2,54.8,74.2,52.6
		z"/>
	<path class="st3" d="M70.4,56.8c0,1.9-1.5,3.4-3.4,3.4c-1.9,0-3.4-1.5-3.4-3.4c0-1.9,1.5-3.4,3.4-3.4
		C68.9,53.4,70.4,54.9,70.4,56.8z"/>
	<g>
		<path class="st2" d="M70.2,54.8c0,1.1-0.9,2-2,2c-1.1,0-2-0.9-2-2c0-1.1,0.9-2,2-2C69.3,52.8,70.2,53.7,70.2,54.8z"/>
		<path class="st2" d="M98.6,130.7c0.9,0,1.8-0.1,2.6-0.1h0c-2.2-0.1-4.3-0.6-6.3-1.5c-0.7,0.5-1.4,0.8-2.2,1.2
			c0.8,0.2,1.7,0.3,2.5,0.3C96.3,130.6,97.4,130.7,98.6,130.7z"/>
		<path class="st2" d="M59.6,129.7c3,2.1,6.6,3.3,10.3,3.2c1.5,0.1,3,0,4.5-0.1c-3.2-0.2-6.2-1.3-8.8-3.1c-7-5.4-8.4-15.7-5.5-23.3
			c2.4-6.3,6.9-11.6,12.6-15.1c4.7-6.6-1.3-15.6-1.7-16.2c-1.9,0.1-3.7,0.3-5.5,0.8c1.5,2.4,5.3,9.8,1.2,15.5
			c-5.7,3.5-10.2,8.8-12.6,15.1C51.3,114,52.6,124.3,59.6,129.7z"/>
		<path class="st2" d="M122.2,115.5c-0.7,0.4-1.5,0.7-2.3,0.9c1.9,0.5,4,0.5,5.9,0c0.5-1.5,0.9-3,1-4.6l0.1-0.9
			C126.8,112.8,123.6,114.7,122.2,115.5z"/>
		<path class="st2" d="M48,42.2L48,42.2L48,42.2C48,42.2,48,42.2,48,42.2c-0.7,2.1-0.4,4.3,0.9,6.1c0.1,0.2,0.3,0.4,0.4,0.5
			c-0.2-0.2-0.3-0.3-0.4-0.5C44.3,53.9,42.4,60.5,35,65c-10,6-8,8-6,12c1.8,3.6,6.8,13.6,13.6,9.8c-3.7-2.1-6.4-7.4-7.6-9.8
			c-2-4-4-6,6-12c7.4-4.5,9.3-11.1,13.9-16.7c-1.3-1.8-1.6-4-0.9-6.1c0,0,0,0,0,0v0l0,0L31,20.4l-6.5-3.2c-0.4-0.2-1-0.1-1.2,0.4
			c-0.3,0.4-0.2,1,0.1,1.3L48,42.2z"/>
		<path class="st2" d="M55.3,48.8c-0.2-0.2-0.3-0.3-0.4-0.5C55,48.5,55.1,48.7,55.3,48.8z"/>
		<path class="st2" d="M56,107c-2.7,7.2-1.2,16.5,4.9,21l-2.4,3.2c-3.7-3-6.3-7.2-7.2-11.9c-0.9-4.6-0.6-9.3,1-13.7L56,107z"/>
	</g>
	<path class="st4" d="M45.8,42.9c-0.3,1.6-0.2,3.3,0.5,4.8c0.1,0.2,0.2,0.3,0.3,0.5c-1.2,1.6-2.2,3.2-3.2,4.8
		c-2.2,4.2-5.4,7.7-9.3,10.4c-9.4,5.6-9.8,8.7-7.2,13.8l0.4,0.8c1.6,3.2,5.4,10.7,11.2,11.7c0.4,0.1,0.8,0.1,1.2,0.1
		c2.6-0.1,5.1-1.3,6.8-3.3c6.4-6.3,11.2-8.6,16.6-9.2c0,0.4,0.2,0.7,0.4,1c0.1,0.1,5.4,6.9,1.9,11.6c-6,3.7-10.5,9.3-13,15.8
		c-0.9,2.5-1.4,5.1-1.5,7.8c0,0.5,0.2,1,0.6,1.4c0.4,0.4,0.9,0.5,1.4,0.5c1,0,1.9-0.7,2-1.8c0.1-2.2,0.5-4.4,1.2-6.5
		c2.3-5.9,6.4-10.8,11.8-14.1c1.3-0.8,2.6-1.5,4-2.2c6.7-2.8,11.9-8.3,14.4-15.1c4-11.5-0.4-24.5-2.5-29.5c0.9-0.4,1.9-0.8,2.7-1.2
		c7.8,3.6,13.9,9.9,17.4,17.7c2.4,5.2,3.4,10.8,3,16.5c-0.8,8.7-6.9,13.1-13.9,18.3c-3.8,2.5-7,5.8-9.6,9.6c-2.5,4.4-3.2,9.7-2,14.6
		c0.4,2.7,1.6,5.2,3.5,7.1c-1.1,0.4-2.3,0.7-3.4,0.9c-2.2,0.5-4.4,0.9-6.7,1.1c-0.3,0-0.5,0-0.8,0c-2.5-3.6-10.6-17.4,0.5-28.4
		c0.8-0.8,0.7-2,0-2.8s-2-0.8-2.8,0c-11.4,11.3-5.8,25.1-2.3,31.3c-3-0.1-6-1-8.5-2.8c-0.8-0.7-1.6-1.4-2.3-2.2
		c-0.7-0.7-1.8-0.8-2.6-0.2c-0.5,0.3-0.8,0.7-0.9,1.3c-0.1,0.5,0.1,1.1,0.4,1.5c0.9,1.1,1.9,2,2.9,2.9c3.7,2.6,8.3,3.9,12.8,3.7
		c0.5,0,1-0.1,1.5-0.1c0.1,0,0.2,0.1,0.3,0.1c0.2,0,0.5,0,0.7-0.1c0.5,0,0.9,0,1.4-0.1c2.4-0.2,4.9-0.6,7.2-1.2
		c2.3-0.5,4.6-1.2,6.7-2.3c2.8,1,5.8,1.5,8.8,1.4c1.5,0,2.9-0.1,4.1-0.2c5.9-0.2,11.7-1.9,16.9-4.8c5.6-3.4,9.3-9.1,9.9-15.6
		c0-0.3,0.1-0.7,0.1-1v0c0-1.1-0.8-2-1.9-2c-0.5,0-1,0.2-1.4,0.5c-0.4,0.4-0.6,0.9-0.6,1.4c0,0.1-0.5,1.1-3.7,2.8
		c-2.7,1.4-6,1.5-8.7,0c-0.9-0.5-1.5-1.1-1.6-1.7c0-0.4,0-0.8,0.2-1.1c1-2.2,2.4-4.2,4.2-5.8c0.7-0.7,1.4-1.5,2-2.2
		c2.1-2.4,4-5,5.7-7.6c4.3-6.7,6.4-14.6,5.9-22.5C127,48.7,99.9,39.5,93,37.5c0.7-2.4,0.6-4.9-0.2-7.2c-0.3-0.7-0.9-1.1-1.6-1.2
		c-6.2-0.9-10.3,0.4-13.1,2.3c-2.9-3-6.8-4.8-10.9-5.1c-4.2-0.1-8.3,1.3-11.6,3.9L25.4,15.4c-1.3-0.7-3-0.3-3.8,1
		c-0.8,1.2-0.6,2.9,0.4,3.9L45.8,42.9z M70.5,87c0-3.6-1.1-7.1-3.1-10c5.8-0.4,11.4-2.5,15.9-6.1c-0.2,1.2-0.5,2.3-0.9,3.5
		C80.3,80,76,84.6,70.5,87z M124.9,73.1c0.5,7.1-1.4,14.1-5.3,20c-1.6,2.5-3.4,4.9-5.4,7.2c-0.6,0.7-1.2,1.4-1.9,2
		c-2.2,2-4,4.5-5.1,7.3c-0.3,1-0.5,2-0.3,3c0.4,2,1.8,3.7,3.7,4.5c3.9,2.1,8.6,2.1,12.6,0l0.2-0.1c-1.5,3-3.7,5.5-6.6,7.2
		c-2.1,1.3-4.5,2.3-6.9,2.9c-0.4-0.2-0.9-0.3-1.4-0.2c-2.6,0.6-5.4,0-7.6-1.6c-2.5-2.4-3.2-7.2-2-14.1c0.1-0.7-0.1-1.4-0.7-1.9
		c-0.5-0.5-1.3-0.6-2-0.4s-1.2,0.8-1.3,1.5c-1.5,8.4-0.5,14.3,3.2,17.7c0.1,0.1,0.3,0.2,0.4,0.4c-3.6,0.3-7.3-0.5-10.5-2.3
		c-1.7-1.4-2.7-3.3-2.9-5.4c-1-4-0.5-8.2,1.4-11.8c2.3-3.3,5.2-6.2,8.5-8.5c7.2-5.2,14.6-10.6,15.5-21.1c0.4-6.3-0.7-12.7-3.4-18.5
		c-3.6-8-9.7-14.6-17.4-18.7c0.4-0.4,0.7-0.8,1-1.2C95.5,42.3,123.2,50.8,124.9,73.1z M76.9,39.4c0.1-0.3,1.6-7.5,12.4-6.6
		c0.3,1.6,0.1,3.2-0.6,4.6c-1.3,2.5-4.1,4.4-8.3,5.6c-0.6,0.2-1,0.6-1.3,1.1c-0.2,0.5-0.2,1.2,0,1.7c2.7,5.9,4.3,12.3,4.6,18.8
		c-4.2,5-10.3,7.9-16.8,8.2c-7.9,0-14.6,1.8-23.4,10.6c-1.1,1.4-2.8,2.2-4.5,2.1c-3.8-0.6-7-7.1-8.2-9.5l-0.4-0.8
		c-1.5-2.9-2-3.9,5.7-8.6c4.5-2.9,8.2-6.9,10.7-11.7c0.8-1.3,1.6-2.5,2.4-3.7c2.1,1.7,4.5,2.8,7.1,3.5c0.1,0,0.2,0.1,0.3,0.1v0
		c0.1,0,0.3,0.1,0.4,0.1c0.8,0,1.5-0.5,1.8-1.2c0.3-0.7,0.2-1.6-0.4-2.2c-0.1-0.5-0.3-0.9-0.4-1.4c-0.3-1.3-0.2-2.6,0.3-3.8
		c2-4.2,7.1-6,15.9-5.5c0.2,0,0.4,0,0.5,0C75.8,41.1,76.7,40.4,76.9,39.4z M66.9,30.2c3.1,0.2,6.1,1.6,8.3,3.9
		c-0.7,0.9-1.2,1.8-1.7,2.8c-4.4-0.2-15-0.3-18.8,7.8c-0.7,1.6-1,3.3-0.8,5c-1.9-0.7-3.3-2.2-4.1-4c-0.9-3,2-6.7,4.6-9.3
		c4.1-4.1,8.2-6.2,12.1-6.2C66.6,30.2,66.8,30.2,66.9,30.2z M52.2,33c-0.2,0.2-0.5,0.4-0.7,0.6c-1.6,1.6-3,3.3-4.2,5.3l-17.9-17
		L52.2,33z"/>
	<path class="st4" d="M55.5,120.1c-0.1-0.4-0.5-0.8-0.9-1l-0.3-0.1c-0.1,0-0.3-0.1-0.4-0.1c-0.1,0-0.3,0-0.4,0c-0.1,0-0.3,0-0.4,0
		c-0.5,0.1-1,0.4-1.3,0.8c-0.1,0.2-0.2,0.5-0.3,0.7c-0.1,0.8,0.3,1.6,1,1.9c0.2,0.1,0.5,0.1,0.8,0.1c0.3,0,0.5,0,0.8-0.1
		c0.5-0.2,0.9-0.5,1.1-1C55.6,121,55.7,120.6,55.5,120.1z"/>
	<path class="st4" d="M37,73c0-0.8-0.5-1.5-1.2-1.8c-0.7-0.3-1.6-0.1-2.2,0.4c-1,0.9-1.3,2.2-0.9,3.4c0.8,2,3.4,2,4.3,2
		c1.1,0,2-0.9,2-2C39,73.9,38.1,73,37,73L37,73z"/>
	<path class="st4" d="M68.4,49.1c-2.8,0.5-5.3,2.2-6.8,4.6c-1,1.8-1.2,4-0.6,6c0.1,0.3,0.3,0.6,0.6,0.9c0.9,0.7,2,1.1,3.1,1
		c1.1,0,2.1-0.3,3-0.8c1-0.5,1.4-1.7,0.9-2.7c-0.5-1-1.7-1.4-2.7-0.9c-0.4,0.2-0.9,0.3-1.3,0.4c0-0.7,0.1-1.4,0.5-2
		c1-1.4,2.5-2.3,4.2-2.6c1.1-0.3,1.7-1.4,1.5-2.4C70.6,49.4,69.5,48.8,68.4,49.1L68.4,49.1z"/>
	<path class="st4" d="M90,85.3c-0.9,0.6-1.2,1.8-0.7,2.7c0.6,0.9,1.8,1.2,2.7,0.7c0.5-0.3,11.3-7,4.9-26.3c-0.2-0.7-0.8-1.2-1.5-1.3
		c-0.7-0.1-1.4,0.1-1.9,0.6c-0.5,0.5-0.6,1.3-0.4,2C98.5,79.7,90.4,85,90,85.3z"/>
</g>
</svg>
